<?xml version="1.0" encoding="utf-8"?>
<!-- Generator: Adobe Illustrator 16.0.0, SVG Export Plug-In . SVG Version: 6.00 Build 0)  -->
<!DOCTYPE svg PUBLIC "-//W3C//DTD SVG 1.1//EN" "http://www.w3.org/Graphics/SVG/1.1/DTD/svg11.dtd">
<svg version="1.1" id="Layer_1" xmlns="http://www.w3.org/2000/svg" xmlns:xlink="http://www.w3.org/1999/xlink" x="0px" y="0px"
	 width="587.542px" height="145.385px" viewBox="12.092 323.439 587.542 145.385"
	 enable-background="new 12.092 323.439 587.542 145.385" xml:space="preserve">
<polygon fill="#8DCDD7" points="386.932,441.068 386.932,439.97 599.634,439.97 599.634,441.068 "/>
<polygon fill="#8DCDD7" points="386.932,349.282 386.932,348.458 599.634,348.458 599.634,349.282 "/>
<g>
	<polygon fill="#8DCDD7" points="12.092,441.068 12.092,439.97 217.374,439.97 217.374,441.068 	"/>
	<polygon fill="#8DCDD7" points="12.092,349.282 12.092,348.458 214.901,348.458 214.901,349.282 	"/>
	<g>
		<path fill="#8DCDD7" d="M52.763,369.344v50.564h-6.32v-24.183H18.687v24.183h-6.595v-50.564h6.32v21.709h27.756v-21.709H52.763z"
			/>
		<path fill="#8DCDD7" d="M106.901,369.344v4.671H78.595v17.038h20.061v4.672H78.595v19.237h29.955v4.672H72.275v-50.29H106.901z"/>
		<path fill="#8DCDD7" d="M122.565,419.908v-50.564h18.687c12.641,0,19.237,4.946,19.237,13.19c0,7.145-4.672,11.268-11.542,13.191
			l12.366,24.183h-6.87l-11.817-23.084H129.16v23.084H122.565z M128.886,392.153h11.542c8.793,0,13.465-2.748,13.465-9.344
			c0-6.87-5.221-8.794-13.465-8.794h-11.542V392.153z"/>
		<path fill="#8DCDD7" d="M213.527,369.344v4.671h-28.306v17.038h20.061v4.672h-20.061v19.237h29.955v4.672h-36.55v-50.29H213.527z"
			/>
	</g>
</g>
<g>
	<path fill="#8DCDD7" d="M250.351,355.878c33.527-15.664,50.565,27.756,50.565,27.756c1.099-11.268,29.68-45.344,59.908-21.71
		c4.672,3.572,7.42,10.442,8.794,15.389c3.848-12.092-4.396-25.832-11.267-30.229c-28.855-18.687-56.336,8.244-57.161,19.511
		c0,0-19.237-37.374-50.565-24.458c-17.863,7.42-20.886,22.81-18.687,36.825C233.038,369.893,238.534,361.099,250.351,355.878z"/>
</g>
<path fill="#8DCDD7" d="M311.634,334.168c0,6.046-4.946,10.717-10.993,10.717c-6.046,0-10.992-4.946-10.992-10.717
	c0-6.046,4.946-10.718,10.992-10.718C306.688,323.176,311.634,328.122,311.634,334.168z"/>
<g>
	<g>
		<g>
			<path fill="#BEC0C1" d="M414.688,382.26c-1.375-4.947-5.222-8.794-11.817-8.794c-5.771,0-9.344,2.748-9.344,7.969
				c-0.274,10.992,28.306,8.244,28.306,24.458c0,7.419-4.122,14.839-17.038,14.839c-10.992,0-15.39-7.145-18.138-13.19l5.222-1.924
				c1.924,5.222,5.771,10.168,13.19,10.168s11.268-3.848,11.268-9.068c0-12.916-28.306-9.069-28.306-25.008
				c0-7.42,6.046-12.916,15.115-12.916c7.969,0,14.015,4.122,16.763,12.366L414.688,382.26z"/>
			<path fill="#BEC0C1" d="M465.802,369.344v4.671h-24.733v17.038h17.588v4.672h-17.588v19.237h26.107v4.672h-31.604v-50.29H465.802
				z"/>
			<path fill="#BEC0C1" d="M479.542,419.908v-50.564h16.214c10.992,0,16.764,4.946,16.764,13.19c0,7.145-4.123,11.268-10.168,13.191
				l10.717,24.183h-6.046l-10.167-23.084h-11.817v23.084H479.542z M485.038,392.153h10.168c7.694,0,11.816-2.748,11.816-9.344
				c0-6.87-4.671-8.794-11.816-8.794h-10.168V392.153z"/>
			<path fill="#BEC0C1" d="M521.038,369.344h5.496L538.9,410.84h0.275l12.641-41.496h5.771l-15.664,50.564h-5.222L521.038,369.344z"
				/>
			<path fill="#BEC0C1" d="M598.26,369.344v4.671h-24.733v17.038h17.588v4.672h-17.588v19.237h26.107v4.672H568.03v-50.29H598.26z"
				/>
		</g>
	</g>
	<path fill="#BEC0C1" d="M232.489,386.107c0,0,3.847,17.313,19.786,40.671c15.939,23.359,46.168,42.046,46.168,42.046
		s17.038-9.618,37.649-30.229c28.03-28.306,32.702-52.489,32.702-52.489s-6.87,10.443-40.122,44.519
		c-16.214,16.488-29.68,23.358-29.68,23.358S258.595,427.604,232.489,386.107z"/>
	<path fill="#BEC0C1" d="M311.634,429.252c0,6.046-4.946,10.718-10.993,10.718c-6.046,0-10.992-4.947-10.992-10.718
		c0-6.046,4.946-10.718,10.992-10.718C306.688,418.26,311.634,423.206,311.634,429.252z"/>
	<g>
		<g>
			<path fill="#BEC0C1" d="M294.321,402.32c0,0.824,0,1.1,0.549,1.1c0.825,0,1.924-1.1,2.474-1.924c0,0,0.274,0,0.274,0.274
				c0,0.275,0,1.1-0.274,1.1c-0.825,1.374-3.298,3.023-5.222,3.023c-0.824,0-1.374-0.825-1.374-2.474c0-1.1,1.099-5.771,1.374-7.97
				v-0.274c-0.824,0-1.649,0-1.924,0v-0.275c0.275-0.275,1.1-1.099,1.1-1.099h1.099c0,0,0.275,0,0.275-0.275
				c0.275-1.374,0.549-2.199,0.824-2.748c0.275-0.275,1.649-1.649,3.298-2.199c0.275,0,0.275,0.275,0.275,0.275
				c-0.275,0.55-0.55,0.824-0.55,1.649c-0.275,0.824-0.275,1.649-0.549,2.748v0.275c1.374,0,3.022,0,3.297-0.275
				c0,0,0,0.55-0.275,0.824c-0.274,0.275-0.824,0.55-1.374,0.825c-0.549,0-1.099,0.275-1.923,0.275c0,0-0.275,0-0.275,0.274
				C294.87,397.648,294.321,401.222,294.321,402.32z"/>
			<path fill="#BEC0C1" d="M311.084,397.648c0,3.298-1.374,5.771-4.122,7.42c-1.099,0.55-2.748,1.1-3.848,1.1
				c-2.198,0-3.297-1.924-3.297-4.396c0-2.474,0.824-5.222,3.023-6.871c1.374-0.825,3.298-1.649,4.672-1.649
				C309.984,393.527,311.084,395.45,311.084,397.648z M305.038,404.52c1.924,0,2.748-3.298,2.748-6.046
				c0-1.649-0.274-3.573-1.923-3.573c-1.924,0-2.748,3.297-2.748,6.045C303.115,403.42,303.664,404.52,305.038,404.52z"/>
		</g>
	</g>
</g>
</svg>
